<?xml version="1.0" encoding="UTF-8" standalone="no"?>
<svg
   sodipodi:docname="26 - Hairdryer.svg"
   inkscape:version="1.1.1 (1:1.1+202109281949+c3084ef5ed)"
   id="svg831"
   version="1.1"
   viewBox="0 0 22.577778 22.577778"
   height="64pt"
   width="64pt"
   inkscape:export-filename="/media/taufikramadhan/Data/Tr Design Studio/Project Design/TR Creative Design/Icon Design/Project Hiring/Icon Icons/009 -  Hotel And Holidays/Send/1 - Line/SVG/26 - Hairdryer.png"
   inkscape:export-xdpi="576"
   inkscape:export-ydpi="576"
   xmlns:inkscape="http://www.inkscape.org/namespaces/inkscape"
   xmlns:sodipodi="http://sodipodi.sourceforge.net/DTD/sodipodi-0.dtd"
   xmlns="http://www.w3.org/2000/svg"
   xmlns:svg="http://www.w3.org/2000/svg"
   xmlns:rdf="http://www.w3.org/1999/02/22-rdf-syntax-ns#"
   xmlns:cc="http://creativecommons.org/ns#"
   xmlns:dc="http://purl.org/dc/elements/1.1/">
  <defs
     id="defs825">
    <pattern
       y="0"
       x="0"
       height="6"
       width="6"
       patternUnits="userSpaceOnUse"
       id="EMFhbasepattern" />
    <pattern
       y="0"
       x="0"
       height="6"
       width="6"
       patternUnits="userSpaceOnUse"
       id="EMFhbasepattern-9" />
    <pattern
       y="0"
       x="0"
       height="6"
       width="6"
       patternUnits="userSpaceOnUse"
       id="EMFhbasepattern-0" />
    <pattern
       y="0"
       x="0"
       height="6"
       width="6"
       patternUnits="userSpaceOnUse"
       id="EMFhbasepattern-7" />
    <pattern
       y="0"
       x="0"
       height="6"
       width="6"
       patternUnits="userSpaceOnUse"
       id="EMFhbasepattern-2" />
    <pattern
       y="0"
       x="0"
       height="6"
       width="6"
       patternUnits="userSpaceOnUse"
       id="EMFhbasepattern-98" />
    <pattern
       y="0"
       x="0"
       height="6"
       width="6"
       patternUnits="userSpaceOnUse"
       id="EMFhbasepattern-6" />
    <pattern
       y="0"
       x="0"
       height="6"
       width="6"
       patternUnits="userSpaceOnUse"
       id="EMFhbasepattern-01" />
    <pattern
       y="0"
       x="0"
       height="6"
       width="6"
       patternUnits="userSpaceOnUse"
       id="EMFhbasepattern-07" />
    <pattern
       y="0"
       x="0"
       height="6"
       width="6"
       patternUnits="userSpaceOnUse"
       id="EMFhbasepattern-8" />
    <pattern
       y="0"
       x="0"
       height="6"
       width="6"
       patternUnits="userSpaceOnUse"
       id="EMFhbasepattern-4" />
    <pattern
       y="0"
       x="0"
       height="6"
       width="6"
       patternUnits="userSpaceOnUse"
       id="EMFhbasepattern-40" />
    <pattern
       y="0"
       x="0"
       height="6"
       width="6"
       patternUnits="userSpaceOnUse"
       id="EMFhbasepattern-08" />
    <pattern
       y="0"
       x="0"
       height="6"
       width="6"
       patternUnits="userSpaceOnUse"
       id="EMFhbasepattern-04" />
    <pattern
       y="0"
       x="0"
       height="6"
       width="6"
       patternUnits="userSpaceOnUse"
       id="EMFhbasepattern-014" />
    <pattern
       y="0"
       x="0"
       height="6"
       width="6"
       patternUnits="userSpaceOnUse"
       id="EMFhbasepattern-27" />
    <pattern
       y="0"
       x="0"
       height="6"
       width="6"
       patternUnits="userSpaceOnUse"
       id="EMFhbasepattern-09" />
    <pattern
       y="0"
       x="0"
       height="6"
       width="6"
       patternUnits="userSpaceOnUse"
       id="EMFhbasepattern-5" />
    <pattern
       y="0"
       x="0"
       height="6"
       width="6"
       patternUnits="userSpaceOnUse"
       id="EMFhbasepattern-018" />
  </defs>
  <sodipodi:namedview
     inkscape:document-rotation="0"
     inkscape:snap-global="true"
     inkscape:snap-nodes="false"
     inkscape:bbox-nodes="true"
     inkscape:snap-bbox="true"
     showguides="false"
     inkscape:snap-midpoints="true"
     inkscape:snap-smooth-nodes="true"
     inkscape:snap-intersection-paths="true"
     inkscape:object-paths="true"
     inkscape:showpageshadow="false"
     inkscape:pagecheckerboard="true"
     inkscape:window-maximized="1"
     inkscape:window-y="31"
     inkscape:window-x="0"
     inkscape:window-height="705"
     inkscape:window-width="1366"
     units="pt"
     showgrid="false"
     inkscape:current-layer="layer1"
     inkscape:document-units="pt"
     inkscape:cy="42.778201"
     inkscape:cx="42.665627"
     inkscape:zoom="4.4415145"
     inkscape:pageshadow="2"
     inkscape:pageopacity="0.0"
     borderopacity="1.0"
     bordercolor="#666666"
     pagecolor="#ffffff"
     id="base">
    <inkscape:grid
       id="grid1378"
       type="xygrid" />
    <sodipodi:guide
       inkscape:locked="false"
       id="guide1380"
       orientation="78.000048,0"
       position="0.97013831,21.607643" />
    <sodipodi:guide
       inkscape:locked="false"
       id="guide1382"
       orientation="0,78.000005"
       position="0.97013831,0.97013129" />
    <sodipodi:guide
       inkscape:locked="false"
       id="guide1384"
       orientation="-78.000048,0"
       position="21.607639,0.97013129" />
    <sodipodi:guide
       inkscape:locked="false"
       id="guide1386"
       orientation="0,-78.000005"
       position="21.607639,21.607643" />
  </sodipodi:namedview>
  <metadata
     id="metadata828">
    <rdf:RDF>
      <cc:Work
         rdf:about="">
        <dc:format>image/svg+xml</dc:format>
        <dc:type
           rdf:resource="http://purl.org/dc/dcmitype/StillImage" />
      </cc:Work>
    </rdf:RDF>
  </metadata>
  <g
     transform="translate(0,-274.42223)"
     id="layer1"
     inkscape:groupmode="layer"
     inkscape:label="Icon">
    <path
       id="rect43632"
       style="color:#000000;display:inline;fill:#000000;stroke-width:1;stroke-linecap:round;stroke-linejoin:round;stroke-miterlimit:1.5;-inkscape-stroke:none"
       d="m 17.591955,275.55798 c -0.10785,-2e-4 -0.216878,0.004 -0.326351,0.0126 L 4.2726617,276.58775 H 1.9901499 c -0.3753343,0 -0.6878061,0.31245 -0.6878061,0.6878 v 4.61443 c 0,0.37533 0.3124718,0.6878 0.6878061,0.6878 h 2.2825118 l 6.4152073,0.50384 c 0.166928,0.10517 0.697011,0.45647 1.265749,1.0174 v 4.8036 c 2e-6,0.73139 0.600036,1.33142 1.33141,1.33142 h 0.334152 v 0.9979 c 0,1.02721 0.785264,1.87907 1.78518,1.98607 -0.244883,1.19952 -1.338329,2.05846 -2.595858,1.97696 -0.0074,-2.4e-4 -0.01473,-2.4e-4 -0.0221,0 h -0.167076 c -1.474575,0 -2.6608658,-1.18889 -2.660867,-2.66347 v -3.32657 c -3.8e-6,-0.73138 -0.6006866,-1.33206 -1.33206,-1.33206 H 8.2922413 v -0.0956 c 0,-0.49475 -0.406931,-0.90428 -0.9016921,-0.90428 H 6.867217 c -0.082242,0 -0.1618989,0.0113 -0.2379374,0.0325 v -0.0325 c 0,-0.27483 -0.1204131,-0.52412 -0.2996972,-0.69302 -0.179276,-0.16889 -0.4093912,-0.26769 -0.6514018,-0.30229 l -2.3319169,-0.33152 c -0.2981192,-0.0427 -0.5753553,0.0844 -0.7567199,0.27499 -0.1813612,0.19046 -0.2873448,0.44549 -0.2873448,0.72032 H 1.3023438 c -0.1829356,6.7e-4 -0.33157413,0.14863 -0.33220326,0.33155 -6.6562e-4,0.1839 0.14830576,0.33352 0.33220326,0.33415 H 2.302199 v 1.99777 H 1.3023438 c -0.1829356,6.6e-4 -0.33157413,0.14862 -0.33220326,0.33155 -6.6562e-4,0.1839 0.14830576,0.33353 0.33220326,0.33416 H 2.302199 c 0,0.27482 0.1059836,0.52918 0.2873448,0.71965 0.1813646,0.19048 0.4585807,0.31828 0.7567199,0.27564 l 2.3319169,-0.33414 c 0.2420406,-0.0346 0.4721232,-0.13078 0.6514018,-0.2997 0.1792785,-0.16891 0.2996972,-0.42078 0.2996972,-0.69561 v -0.0325 c 0.076039,0.0211 0.1556953,0.0325 0.2379374,0.0325 h 0.5233322 c 0.4947611,0 0.9016917,-0.40954 0.9016921,-0.90429 v -0.0936 h 0.3341524 c 0.3716014,0 0.6663537,0.29474 0.6663549,0.66635 v 3.32657 c 2.5e-6,1.83435 1.4922244,3.32917 3.3265724,3.32917 h 0.144972 c 1.629851,0.10568 3.056379,-1.05542 3.314222,-2.63551 1.03904,-0.0674 1.867744,-0.93782 1.867744,-1.99321 v -2.99502 c 0,-3.16003 2.435283,-5.76185 2.435283,-5.76185 0.833135,-0.83314 1.226097,-1.87802 1.226097,-2.89238 0,-2.46976 -1.989704,-4.10921 -4.015684,-4.02472 z m -0.09166,0.66636 c 1.878213,-0.0476 3.440985,1.45537 3.44099,3.35842 -8e-6,1.96445 -1.665241,3.5049 -3.623669,3.35128 L 4.6315165,281.93938 v -4.71063 l 12.6860955,-0.99466 c 0.0612,-0.005 0.122091,-0.009 0.182679,-0.0101 z m -2.47559,0.43686 c -0.08859,10e-6 -0.173523,0.0353 -0.235987,0.0981 -0.722439,0.72243 -1.169536,1.7224 -1.169534,2.82339 2e-6,1.10102 0.447097,2.10292 1.169534,2.82535 0.129831,0.12909 0.339542,0.12909 0.469373,0 0.130387,-0.13005 0.130387,-0.34126 0,-0.47132 -0.602721,-0.60272 -0.97255,-1.4329 -0.972552,-2.35403 -3e-6,-0.92111 0.369832,-1.75129 0.972552,-2.35401 0.12909,-0.12983 0.12909,-0.33954 0,-0.46938 -0.06183,-0.0621 -0.145697,-0.0975 -0.233386,-0.0981 z m 2.587407,0.2581 c -1.46669,0 -2.660868,1.19677 -2.660868,2.66346 0,1.4667 1.194178,2.66348 2.660868,2.66348 1.46669,0 2.663469,-1.19678 2.663469,-2.66348 0,-1.46669 -1.196779,-2.66346 -2.663469,-2.66346 z m -15.621958,0.33415 h 1.9756618 v 4.65863 H 1.9901499 c -0.018074,0 -0.022101,-0.004 -0.022101,-0.0221 v -0.6436 H 2.967904 c 0.1829357,-6.7e-4 0.3309219,-0.14863 0.3315543,-0.33154 6.656e-4,-0.18391 -0.1476567,-0.33353 -0.3315543,-0.33416 H 1.9680486 v -0.66376 h 0.6657047 c 0.1848561,6.7e-4 0.3348828,-0.1493 0.3341505,-0.33416 -6.658e-4,-0.18389 -0.1502596,-0.33226 -0.3341505,-0.33155 H 1.9680486 v -0.66569 h 0.9998552 c 0.1838942,-6.7e-4 0.3322765,-0.15028 0.3315542,-0.33416 -6.657e-4,-0.18293 -0.1486186,-0.33157 -0.3315542,-0.33219 H 1.9680486 v -0.64361 c 0,-0.0181 0.00403,-0.0221 0.022101,-0.0221 z m 15.621953,0.33154 c 0.594268,0 1.126078,0.25728 1.491334,0.66637 h -2.981369 c 0.364606,-0.4092 0.895667,-0.66637 1.490035,-0.66637 z m -1.882696,1.33206 h 3.767342 c 0.07302,0.20804 0.113122,0.43207 0.113122,0.66571 0,0.23364 -0.04009,0.45768 -0.113122,0.66571 h -3.767342 c -0.07283,-0.208 -0.112467,-0.43211 -0.112467,-0.66571 0,-0.2336 0.03964,-0.4577 0.112467,-0.66571 z m -9.7840388,0.2919 c -0.1689242,0.009 -0.3040094,0.14382 -0.3139983,0.31271 -0.01185,0.18395 0.1280483,0.34251 0.3120481,0.35366 l 1.3119062,0.0813 c 0.1842016,0.0126 0.3431735,-0.12777 0.3543058,-0.31205 0.010731,-0.1832 -0.1288585,-0.34055 -0.3120491,-0.3517 l -1.3145065,-0.0832 c -0.012543,-9.9e-4 -0.025134,-9.9e-4 -0.037706,-6.7e-4 z m 11.0010308,0.0423 c -0.182815,6.7e-4 -0.330839,0.14874 -0.331553,0.33155 -7.32e-4,0.18384 0.147721,0.33344 0.331553,0.33416 h 1.331409 c 0.184846,6.7e-4 0.334876,-0.14931 0.334152,-0.33416 -7.32e-4,-0.18382 -0.150323,-0.33226 -0.334152,-0.33155 z m -10.9633246,1.33142 c -0.1832156,-0.0113 -0.3405473,0.12886 -0.3517045,0.31204 -0.010756,0.18322 0.1288579,0.34055 0.3120481,0.35171 l 4.174957,0.26004 c 0.183004,0.0113 0.341146,-0.12649 0.353656,-0.30945 0.01182,-0.18396 -0.128049,-0.34252 -0.312049,-0.35365 z m 10.1396436,0.33219 h 2.980719 c -0.365246,0.40886 -0.897245,0.66571 -1.491334,0.66571 -0.594036,0 -1.124796,-0.25691 -1.489385,-0.66571 z m -4.169756,2.26562 5.312637,0.41736 c 0.550785,0.0432 1.083032,-0.0273 1.575197,-0.19048 -0.72674,1.12989 -1.560246,2.85647 -1.560246,4.82961 v 2.99502 c 0,0.73926 -0.592797,1.3314 -1.332059,1.3314 h -0.331553 c -0.739261,0 -1.331409,-0.59214 -1.331409,-1.3314 v -3.66138 c 0,-1.63745 -0.854778,-2.92565 -1.697417,-3.79855 -0.03296,-0.0713 -0.09007,-0.12862 -0.161225,-0.16187 -0.162884,-0.15936 -0.322513,-0.30265 -0.473925,-0.42971 z m 2.658919,0.73071 c -0.0698,6.7e-4 -0.137567,0.0235 -0.193731,0.065 -0.147477,0.11045 -0.177199,0.31965 -0.06631,0.46678 0,0 0.930947,1.24148 0.930947,3.12763 -7.32e-4,0.18486 0.149305,0.33489 0.334151,0.33416 0.183832,-6.7e-4 0.332274,-0.15032 0.331553,-0.33416 0,-2.10805 -1.063567,-3.5281 -1.063567,-3.5281 -0.05372,-0.0703 -0.133255,-0.11649 -0.221035,-0.12807 -0.01722,-0.003 -0.03461,-0.004 -0.05201,-0.004 z m -1.992564,0.942 c 0.550498,0.72619 0.999858,1.64654 0.999858,2.71742 v 1.99777 h -0.334152 c -0.371602,0 -0.665703,-0.29409 -0.665706,-0.66571 z m -9.390725,1.3496 c 0.00803,1.8e-4 0.016343,6.7e-4 0.024698,0.003 l 2.329314,0.33416 c 0.1230726,0.0176 0.2276478,0.0667 0.2899464,0.12542 0.062297,0.0586 0.090364,0.11473 0.090364,0.20868 v 2.66348 c 0,0.094 -0.028067,0.14998 -0.090364,0.20868 -0.062297,0.0586 -0.1668975,0.11046 -0.2899464,0.12807 l -2.329314,0.33155 c -0.066953,0.0101 -0.1218209,-0.0101 -0.1820303,-0.0735 -0.060209,-0.0633 -0.1033668,-0.16675 -0.1033668,-0.26069 v -3.32918 c 0,-0.094 0.043158,-0.19746 0.1033668,-0.26069 0.052684,-0.0554 0.1011804,-0.0793 0.1573259,-0.078 z m 3.6386214,1.33596 h 0.5233321 c 0.1374744,0 0.235987,0.10115 0.2359874,0.23859 v 0.85489 c 0,0.13748 -0.098511,0.23858 -0.2359874,0.23858 H 6.8672184 c -0.1374746,0 -0.2379375,-0.10114 -0.2379375,-0.23858 v -0.86789 c 0.00604,-0.13088 0.1047646,-0.22559 0.2379375,-0.22559 z"
       sodipodi:nodetypes="cccsssscccsscscccsssscssscsscccccccccccccsccsscssscssssccssccccscccccccscccscscssssscccsscccccccccccccccsscsccsccsccscsccccccsscsccscccccccccccsccccsssssscccccccsccccccscsscccccccccccsscccssssssscs" />
  </g>
</svg>
