<svg width="16" height="16" viewBox="0 0 16 16" fill="none" xmlns="http://www.w3.org/2000/svg">
<path d="M13.8439 -0.000732422H2.15615C0.965434 -0.000732422 0.00012207 0.964541 0.00012207 2.1553V13.8432C0.00012207 15.0339 0.965395 15.9992 2.15615 15.9992H7.92051L7.93034 10.2817H6.44493C6.25189 10.2817 6.09521 10.1256 6.09447 9.93255L6.08735 8.08956C6.0866 7.89547 6.24375 7.73773 6.43785 7.73773H7.92055V5.95694C7.92055 3.89034 9.1827 2.76506 11.0262 2.76506H12.539C12.7326 2.76506 12.8895 2.92198 12.8895 3.11556V4.66958C12.8895 4.86309 12.7327 5.01996 12.5392 5.02008L11.6108 5.02051C10.6083 5.02051 10.4141 5.49692 10.4141 6.19608V7.73777H12.6171C12.827 7.73777 12.9899 7.92107 12.9652 8.12953L12.7467 9.97252C12.7258 10.1489 12.5763 10.2818 12.3987 10.2818H10.424L10.4141 15.9993H13.844C15.0347 15.9993 16 15.034 16 13.8433V2.1553C16 0.964541 15.0347 -0.000732422 13.8439 -0.000732422Z" fill="#828282"/>
</svg>
