<svg width="16" height="16" viewBox="0 0 16 16" fill="none" xmlns="http://www.w3.org/2000/svg">
<path d="M11.2335 0H4.76649C2.13823 0 0 2.13823 0 4.76649V11.2335C0 13.8618 2.13823 16 4.76649 16H11.2335C13.8618 16 16 13.8618 16 11.2335V4.76649C16 2.13823 13.8617 0 11.2335 0ZM14.3904 11.2335C14.3904 12.977 12.977 14.3904 11.2335 14.3904H4.76649C3.023 14.3904 1.6096 12.977 1.6096 11.2335V4.76649C1.6096 3.02297 3.023 1.6096 4.76649 1.6096H11.2335C12.977 1.6096 14.3904 3.02297 14.3904 4.76649V11.2335Z" fill="#828282"/>
<path d="M7.99999 3.86183C5.7182 3.86183 3.86182 5.71821 3.86182 7.99997C3.86182 10.2817 5.7182 12.1381 7.99999 12.1381C10.2818 12.1381 12.1382 10.2818 12.1382 7.99997C12.1382 5.71818 10.2818 3.86183 7.99999 3.86183ZM7.99999 10.5286C6.60348 10.5286 5.47142 9.3965 5.47142 8C5.47142 6.6035 6.60351 5.47143 7.99999 5.47143C9.39649 5.47143 10.5286 6.6035 10.5286 8C10.5286 9.39647 9.39646 10.5286 7.99999 10.5286Z" fill="#828282"/>
<path d="M12.1461 4.88445C12.6938 4.88445 13.1377 4.4405 13.1377 3.89286C13.1377 3.34522 12.6938 2.90127 12.1461 2.90127C11.5985 2.90127 11.1545 3.34522 11.1545 3.89286C11.1545 4.4405 11.5985 4.88445 12.1461 4.88445Z" fill="#828282"/>
</svg>
