<?xml version="1.0" ?><!DOCTYPE svg  PUBLIC '-//W3C//DTD SVG 1.1//EN'  'http://www.w3.org/Graphics/SVG/1.1/DTD/svg11.dtd'><svg enable-background="new -76.807 -46.565 1024 1024" height="1024px" version="1.1" viewBox="-76.807 -46.565 1024 1024" width="1024px" xml:space="preserve" xmlns="http://www.w3.org/2000/svg" xmlns:xlink="http://www.w3.org/1999/xlink"><defs/><g><g><path d="M772.299,641.95c-23.033,0-46.067,0-69.101,0c-54.976,0-109.95,0-164.925,0c-65.729,0-131.457,0-197.185,0    c-55.293,0-110.586,0-165.879,0c-23.669,0-47.338,0-71.007,0c-0.006,0-0.012,0-0.018,0c4.667,4.667,9.333,9.333,14,14    c0-33.033,0-66.067,0-99.101c0-64.191,0-128.382,0-192.573c0-42.983,0-85.966,0-128.949c0-1.274,0-2.547,0-3.821    c0-0.173,0-0.346,0-0.519c0-0.431,0.164-2.82-0.172-0.344c0.178-1.314,0.565-2.59,0.949-3.854    c-0.797,2.625,0.509-0.976,0.732-1.381c0.916-1.339,0.918-1.45,0.009-0.333c0.541-0.664,1.113-1.298,1.719-1.903    c0.268-0.282,3.434-2.64,1.142-1.048c1.063-0.738,2.231-1.306,3.392-1.87c-2.581,1.254,1.303-0.16,1.627-0.24    c3.932-0.97-2.485,0.034,1.652-0.078c0.12-0.003,0.24,0,0.36,0c0.888,0,1.776,0,2.664,0c11.304,0,22.607,0,33.911,0    c49.767,0,99.533,0,149.299,0c65.356,0,130.712,0,196.069,0c56.2,0,112.4,0,168.601,0c16.934,0,33.867,0,50.8,0    c4.322,0,8.645,0,12.966,0c0.956,0,1.911,0,2.866,0c0.153,0,0.307,0,0.46,0c4.267,0-2.377-0.694,1.671,0.078    c0.273,0.052,4.316,1.377,1.628,0.24c0.524,0.222,4.78,2.862,2.631,1.2c1.017,0.786,1.904,1.72,2.786,2.648    c2.701,2.842-1.227-2.03,0.845,1.307c0.211,0.34,1.69,4.026,0.731,1.381c0.452,1.248,0.702,2.556,0.949,3.854    c-0.45-2.364-0.172-0.08-0.172,0.716c0,1.177,0,2.354,0,3.532c0,5.726,0,11.451,0,17.177c0,22.072,0,44.143,0,66.214    c0,63.714,0,127.429,0,191.143c0,46.172,0,92.345,0,138.517c0,2.67,0,5.339,0,8.009c0,7.632,6.368,14,14,14s14-6.368,14-14    c0-33.033,0-66.067,0-99.101c0-64.191,0-128.382,0-192.573c0-42.983,0-85.966,0-128.949c0-8.446-1.127-16.43-5.332-24.052    c-6.975-12.644-21.117-19.34-35.146-19.34c-9.886,0-19.772,0-29.658,0c-48.044,0-96.088,0-144.132,0    c-65.118,0-130.237,0-195.355,0c-57.448,0-114.895,0-172.342,0c-25.03,0-50.061,0-75.09,0c-21.577,0-39.059,18.1-39.059,39.494    c0,3.605,0,7.209,0,10.814c0,19.008,0,38.016,0,57.024c0,62.3,0,124.601,0,186.901c0,51.042,0,102.084,0,153.126    c0,5.552,0,11.103,0,16.654c0,7.632,6.368,14,14,14c23.034,0,46.067,0,69.101,0c54.975,0,109.95,0,164.925,0    c65.728,0,131.457,0,197.184,0c55.293,0,110.586,0,165.879,0c23.669,0,47.338,0,71.008,0c0.006,0,0.012,0,0.018,0    c7.632,0,14-6.368,14-14S779.931,641.95,772.299,641.95z" fill="#010202"/></g></g><g><g><path d="M848.483,656.383c0,11.396,0,22.793,0,34.189c0-5.082-0.053-0.912-0.739,1.16    c-1.044,3.149,1.353-2.813-0.058,0.149c-0.401,0.846-0.879,1.651-1.354,2.456c-0.474,0.802-1.015,1.562-1.555,2.319    c2.206-3.1,0.379-0.566-0.166,0.052c-1.455,1.647-3.105,3.112-4.799,4.507c3.098-2.551-1.732,1.094-2.653,1.672    c-1.647,1.034-3.367,1.949-5.1,2.831c-0.87,0.443-1.758,0.852-2.646,1.261c-3.085,1.423,2.896-1.158-0.245,0.117    c-2.086,0.847-4.215,1.584-6.354,2.283c-6.709,2.197-13.651,3.689-20.622,4.77c-4.488,0.696,2.551-0.297-0.626,0.097    c-0.979,0.122-1.96,0.227-2.942,0.325c-1.087,0.11-2.177,0.205-3.268,0.27c-1.405,0.084-2.838,0.005-4.244,0.006    c-31.014,0.013-62.027,0.025-93.042,0.038c-57.742,0.024-115.485,0.048-173.228,0.071c-65.813,0.027-131.625,0.055-197.437,0.082    c-55.224,0.022-110.447,0.045-165.671,0.068c-25.977,0.011-51.953,0.021-77.929,0.032c-0.271,0-0.542,0-0.812,0    c-4.501,0.002-8.944-0.124-13.422-0.621c1.422,0.197,1.299,0.169-0.368-0.086c-1.31-0.209-2.607-0.48-3.904-0.753    c-2.456-0.517-4.872-1.207-7.264-1.96c-0.792-0.249-6.355-2.395-3.216-1.063c-1.686-0.716-3.326-1.535-4.949-2.381    c-3.272-1.703-6.363-3.738-9.314-5.945c3.3,2.469-0.691-0.677-1.38-1.284c-1.06-0.936-2.072-1.923-3.07-2.922    c-0.928-0.93-1.813-1.901-2.685-2.883c-0.786-0.884-4.026-5.045-0.954-1.021c-2.09-2.737-3.954-5.668-5.52-8.736    c-0.289-0.566-0.563-1.141-0.814-1.726c1.238,2.141,1.86,4.448,1.868,6.924c0-0.18,0-0.36,0-0.54c0-0.914,0-1.829,0-2.743    c0-10.339,0-20.678,0-31.017c-4.667,4.667-9.333,9.333-14,14c18.75,0,37.5,0,56.25,0c47.475,0,94.95,0,142.425,0    c63.038,0,126.077,0,189.115,0c65.441,0,130.881,0,196.322,0c54.681,0,109.361,0,164.042,0c30.76,0,61.52,0,92.279,0    c2.684,0,5.367,0,8.051,0c7.632,0,14-6.368,14-14s-6.368-14-14-14c-18.75,0-37.5,0-56.249,0c-47.476,0-94.95,0-142.425,0    c-63.039,0-126.077,0-189.116,0c-65.44,0-130.88,0-196.321,0c-54.681,0-109.362,0-164.043,0c-30.76,0-61.52,0-92.279,0    c-2.684,0-5.367,0-8.051,0c-7.632,0-14,6.368-14,14c0,11.396,0,22.793,0,34.189c0,9.594,9.78,20.513,15.74,26.769    c18.588,19.511,44.363,25.808,70.466,25.797c29.924-0.013,59.848-0.025,89.771-0.037c57.212-0.023,114.424-0.048,171.637-0.071    c65.842-0.027,131.683-0.054,197.525-0.081c55.813-0.023,111.626-0.046,167.438-0.069c27.125-0.011,54.25-0.022,81.376-0.033    c17.342-0.008,35.848-5.126,51.362-12.519c14.915-7.106,31.168-22.326,31.168-40.185c0-11.253,0-22.507,0-33.76    c0-7.632-6.368-14-14-14S848.483,648.751,848.483,656.383z" fill="#010202"/></g></g><g><g><path d="M438.242,264.487c7.632,0,14-6.368,14-14s-6.368-14-14-14s-14,6.368-14,14S430.61,264.487,438.242,264.487    L438.242,264.487z" fill="#010202"/></g></g><g><g><path d="M278.384,311.908c-31.098,29.543-62.195,59.086-93.292,88.629c-13.113,12.458,6.718,32.226,19.799,19.799    c31.098-29.543,62.195-59.086,93.292-88.629C311.296,319.249,291.465,299.481,278.384,311.908L278.384,311.908z" fill="#010202"/></g></g><g><g><path d="M209.365,302.578c-11.46,10.887-22.919,21.773-34.379,32.66c-13.114,12.458,6.718,32.226,19.799,19.799    c11.46-10.887,22.919-21.773,34.379-32.66C242.278,309.919,222.446,290.151,209.365,302.578L209.365,302.578z" fill="#010202"/></g></g><g><g><path d="M378.123,687.432c40.079,0,80.158,0,120.237,0c7.632,0,14-6.368,14-14s-6.368-14-14-14    c-40.079,0-80.158,0-120.237,0c-7.632,0-14,6.368-14,14S370.491,687.432,378.123,687.432L378.123,687.432z" fill="#010202"/></g></g></svg>