<?xml version="1.0" ?><!DOCTYPE svg  PUBLIC '-//W3C//DTD SVG 1.1//EN'  'http://www.w3.org/Graphics/SVG/1.1/DTD/svg11.dtd'><svg enable-background="new -160.5 -13 1024 1024" height="1024px" version="1.1" viewBox="-160.5 -13 1024 1024" width="1024px" xml:space="preserve" xmlns="http://www.w3.org/2000/svg" xmlns:xlink="http://www.w3.org/1999/xlink"><defs/><path d="M660,0H42C18.8,0,0,18.8,0,42v910.5c0,23.2,18.8,42,42,42h618c23.2,0,42-18.8,42-42V42  C702,18.8,683.2,0,660,0z M350.917,39.333c3.543,0,6.417,2.873,6.417,6.417s-2.873,6.417-6.417,6.417  c-3.544,0-6.417-2.873-6.417-6.417S347.373,39.333,350.917,39.333z M352.495,976.887c-13.488,0-24.422-10.934-24.422-24.422  s10.934-24.422,24.422-24.422s24.422,10.934,24.422,24.422S365.983,976.887,352.495,976.887z M657.5,905h-612V91h612V905z" fill="#212121"/></svg>